<svg width="134" height="64" viewBox="0 0 134 64" fill="none" xmlns="http://www.w3.org/2000/svg">
<path d="M17.92 25.744H23.872V28H14.824L17.92 25.744ZM5.416 19.336C5.416 18.136 5.64 17.008 6.088 15.952C6.552 14.88 7.192 13.936 8.008 13.12C8.824 12.288 9.76 11.64 10.816 11.176C11.888 10.696 13.04 10.456 14.272 10.456C15.488 10.456 16.624 10.696 17.68 11.176C18.752 11.64 19.696 12.288 20.512 13.12C21.344 13.936 21.992 14.88 22.456 15.952C22.92 17.008 23.152 18.136 23.152 19.336C23.152 20.568 22.92 21.72 22.456 22.792C21.992 23.864 21.344 24.808 20.512 25.624C19.696 26.424 18.752 27.056 17.68 27.52C16.624 27.968 15.488 28.192 14.272 28.192C13.04 28.192 11.888 27.968 10.816 27.52C9.76 27.072 8.824 26.448 8.008 25.648C7.192 24.848 6.552 23.912 6.088 22.84C5.64 21.768 5.416 20.6 5.416 19.336ZM7.816 19.36C7.816 20.272 7.984 21.128 8.32 21.928C8.656 22.712 9.12 23.408 9.712 24.016C10.304 24.624 10.992 25.096 11.776 25.432C12.56 25.768 13.408 25.936 14.32 25.936C15.216 25.936 16.056 25.768 16.84 25.432C17.624 25.096 18.304 24.624 18.88 24.016C19.456 23.408 19.912 22.712 20.248 21.928C20.584 21.128 20.752 20.264 20.752 19.336C20.752 18.44 20.584 17.592 20.248 16.792C19.912 15.992 19.448 15.296 18.856 14.704C18.264 14.096 17.576 13.624 16.792 13.288C16.008 12.936 15.168 12.76 14.272 12.76C13.36 12.76 12.512 12.936 11.728 13.288C10.944 13.624 10.256 14.096 9.664 14.704C9.072 15.312 8.616 16.016 8.296 16.816C7.976 17.616 7.816 18.464 7.816 19.36ZM30.3693 28.384C29.4733 28.384 28.7293 28.112 28.1373 27.568C27.5613 27.008 27.2573 26.288 27.2253 25.408V18.064H29.4573V24.616C29.4893 25.16 29.6413 25.6 29.9133 25.936C30.2013 26.272 30.6493 26.448 31.2573 26.464C31.8173 26.464 32.3133 26.304 32.7453 25.984C33.1933 25.648 33.5533 25.2 33.8253 24.64C34.0973 24.064 34.2333 23.416 34.2333 22.696V18.064H36.4653V28H34.4253L34.2333 25.552L34.3533 25.984C34.1613 26.448 33.8653 26.864 33.4653 27.232C33.0813 27.584 32.6253 27.864 32.0973 28.072C31.5693 28.28 30.9933 28.384 30.3693 28.384ZM40.3268 18.064H42.5588V28H40.3268V18.064ZM40.1588 14.464C40.1588 14.112 40.2948 13.816 40.5668 13.576C40.8548 13.336 41.1668 13.216 41.5028 13.216C41.8388 13.216 42.1348 13.336 42.3908 13.576C42.6628 13.816 42.7988 14.112 42.7988 14.464C42.7988 14.832 42.6628 15.136 42.3908 15.376C42.1348 15.6 41.8388 15.712 41.5028 15.712C41.1668 15.712 40.8548 15.592 40.5668 15.352C40.2948 15.112 40.1588 14.816 40.1588 14.464ZM54.4846 27.088C54.0366 27.44 53.5006 27.72 52.8766 27.928C52.2526 28.136 51.6286 28.24 51.0046 28.24C49.9166 28.24 48.9646 28.024 48.1486 27.592C47.3326 27.16 46.6926 26.56 46.2286 25.792C45.7806 25.008 45.5566 24.088 45.5566 23.032C45.5566 21.976 45.7966 21.056 46.2766 20.272C46.7726 19.488 47.4126 18.888 48.1966 18.472C48.9966 18.04 49.8526 17.824 50.7646 17.824C51.5646 17.824 52.2766 17.936 52.9006 18.16C53.5406 18.384 54.0846 18.688 54.5326 19.072L53.4286 20.512C53.1406 20.288 52.7886 20.088 52.3726 19.912C51.9566 19.736 51.4846 19.648 50.9566 19.648C50.3806 19.648 49.8446 19.8 49.3486 20.104C48.8686 20.392 48.4846 20.792 48.1966 21.304C47.9246 21.816 47.7886 22.392 47.7886 23.032C47.7886 23.64 47.9326 24.208 48.2206 24.736C48.5086 25.248 48.9086 25.656 49.4206 25.96C49.9326 26.248 50.5166 26.392 51.1726 26.392C51.6046 26.392 51.9966 26.328 52.3486 26.2C52.7166 26.072 53.0446 25.896 53.3326 25.672L54.4846 27.088ZM57.3659 28V9.424H59.5979V28H57.3659ZM61.9979 21.4L66.5579 28H63.9419L60.5099 22.648L61.9979 21.4ZM58.9019 24.832L58.6859 22.696L64.7099 17.848L66.0779 19.024L58.9019 24.832ZM10.96 30.648C12.704 30.648 14.072 31.008 15.064 31.728C16.072 32.432 16.576 33.536 16.576 35.04C16.576 35.952 16.368 36.744 15.952 37.416C15.536 38.088 14.952 38.616 14.2 39C13.464 39.384 12.592 39.6 11.584 39.648L11.248 38.448C12.416 38.48 13.464 38.688 14.392 39.072C15.32 39.456 16.056 39.992 16.6 40.68C17.144 41.368 17.416 42.184 17.416 43.128C17.416 43.992 17.256 44.736 16.936 45.36C16.616 45.968 16.184 46.472 15.64 46.872C15.096 47.256 14.48 47.544 13.792 47.736C13.104 47.912 12.392 48 11.656 48H6.496V30.648H10.96ZM11.44 38.256C12.4 38.256 13.096 37.992 13.528 37.464C13.96 36.92 14.176 36.264 14.176 35.496C14.176 34.584 13.896 33.92 13.336 33.504C12.776 33.088 12.024 32.88 11.08 32.88H8.824V38.256H11.44ZM11.536 45.84C12.176 45.84 12.76 45.744 13.288 45.552C13.832 45.36 14.256 45.064 14.56 44.664C14.88 44.264 15.04 43.76 15.04 43.152C15.04 42.48 14.856 41.952 14.488 41.568C14.136 41.184 13.68 40.912 13.12 40.752C12.56 40.576 11.984 40.488 11.392 40.488H8.824V45.84H11.536ZM23.9239 48.384C23.0279 48.384 22.2839 48.112 21.6919 47.568C21.1159 47.008 20.8119 46.288 20.7799 45.408V38.064H23.0119V44.616C23.0439 45.16 23.1959 45.6 23.4679 45.936C23.7559 46.272 24.2039 46.448 24.8119 46.464C25.3719 46.464 25.8679 46.304 26.2999 45.984C26.7479 45.648 27.1079 45.2 27.3799 44.64C27.6519 44.064 27.7879 43.416 27.7879 42.696V38.064H30.0199V48H27.9799L27.7879 45.552L27.9079 45.984C27.7159 46.448 27.4199 46.864 27.0199 47.232C26.6359 47.584 26.1799 47.864 25.6519 48.072C25.1239 48.28 24.5479 48.384 23.9239 48.384ZM33.8815 38.064H36.1135V48H33.8815V38.064ZM33.7135 34.464C33.7135 34.112 33.8495 33.816 34.1215 33.576C34.4095 33.336 34.7215 33.216 35.0575 33.216C35.3935 33.216 35.6895 33.336 35.9455 33.576C36.2175 33.816 36.3535 34.112 36.3535 34.464C36.3535 34.832 36.2175 35.136 35.9455 35.376C35.6895 35.6 35.3935 35.712 35.0575 35.712C34.7215 35.712 34.4095 35.592 34.1215 35.352C33.8495 35.112 33.7135 34.816 33.7135 34.464ZM39.9753 29.424H42.2073V48H39.9753V29.424ZM50.101 48.24C49.189 48.24 48.357 48.024 47.605 47.592C46.869 47.144 46.285 46.52 45.853 45.72C45.421 44.904 45.205 43.968 45.205 42.912C45.205 41.808 45.429 40.864 45.877 40.08C46.341 39.296 46.965 38.696 47.749 38.28C48.533 37.864 49.413 37.656 50.389 37.656C51.173 37.656 51.917 37.824 52.621 38.16C53.341 38.496 53.901 38.96 54.301 39.552L54.205 40.344V29.424H56.413V48H54.181V45.528L54.421 46.152C53.957 46.76 53.357 47.264 52.621 47.664C51.885 48.048 51.045 48.24 50.101 48.24ZM50.797 46.344C51.389 46.344 51.917 46.24 52.381 46.032C52.845 45.808 53.229 45.504 53.533 45.12C53.837 44.736 54.053 44.28 54.181 43.752V41.88C54.053 41.4 53.821 40.984 53.485 40.632C53.165 40.264 52.773 39.976 52.309 39.768C51.861 39.544 51.357 39.432 50.797 39.432C50.189 39.432 49.629 39.584 49.117 39.888C48.621 40.176 48.221 40.576 47.917 41.088C47.613 41.6 47.461 42.192 47.461 42.864C47.461 43.52 47.613 44.112 47.917 44.64C48.221 45.152 48.629 45.568 49.141 45.888C49.653 46.192 50.205 46.344 50.797 46.344ZM64.9036 48.24C63.7676 48.24 62.7916 48.016 61.9756 47.568C61.1596 47.104 60.5276 46.48 60.0796 45.696C59.6476 44.896 59.4316 43.984 59.4316 42.96C59.4316 41.984 59.6796 41.096 60.1756 40.296C60.6716 39.496 61.3356 38.856 62.1676 38.376C62.9996 37.896 63.9276 37.656 64.9516 37.656C66.2636 37.656 67.3516 38.04 68.2156 38.808C69.0796 39.576 69.6636 40.632 69.9676 41.976L61.7836 44.856L61.2556 43.536L67.9756 41.088L67.4956 41.4C67.3036 40.872 66.9836 40.416 66.5356 40.032C66.0876 39.632 65.5036 39.432 64.7836 39.432C64.1756 39.432 63.6316 39.584 63.1516 39.888C62.6716 40.176 62.2956 40.576 62.0236 41.088C61.7516 41.6 61.6156 42.184 61.6156 42.84C61.6156 43.528 61.7596 44.136 62.0476 44.664C62.3356 45.176 62.7276 45.584 63.2236 45.888C63.7356 46.176 64.3116 46.32 64.9516 46.32C65.3836 46.32 65.7996 46.24 66.1996 46.08C66.6156 45.92 66.9996 45.712 67.3516 45.456L68.3836 47.112C67.8876 47.448 67.3276 47.72 66.7036 47.928C66.0956 48.136 65.4956 48.24 64.9036 48.24ZM74.7563 38.064L74.9723 40.944L74.8523 40.56C75.1083 39.952 75.4763 39.44 75.9563 39.024C76.4523 38.592 76.9643 38.264 77.4923 38.04C78.0363 37.8 78.5083 37.68 78.9083 37.68L78.7883 39.888C78.0363 39.84 77.3723 39.984 76.7963 40.32C76.2363 40.656 75.7883 41.104 75.4523 41.664C75.1323 42.224 74.9723 42.824 74.9723 43.464V48H72.7643V38.064H74.7563Z" fill="currentColor"/>
<path d="M105.991 33.1926C105.991 33.1926 105.991 33.1926 105.991 33.1004L105.92 32.9275C105.895 32.8908 105.868 32.8561 105.837 32.8237C105.806 32.7749 105.77 32.7286 105.731 32.6854L105.624 32.6047L105.435 32.5125L96.5508 27.1752C96.3625 27.0607 96.145 27 95.923 27C95.701 27 95.4835 27.0607 95.2952 27.1752L86.4825 32.5125L86.3759 32.6047L86.2693 32.6854C86.2301 32.7286 86.1944 32.7749 86.1627 32.8237C86.1323 32.8561 86.1045 32.8908 86.0798 32.9275L86.0087 33.1004C86.0087 33.1004 86.0087 33.1004 86.0087 33.1926C85.9971 33.2922 85.9971 33.3927 86.0087 33.4923V43.5674C86.0083 43.7633 86.0592 43.956 86.1566 44.1275C86.254 44.2989 86.3947 44.4434 86.5654 44.5472L95.4492 49.8844C95.5039 49.9173 95.564 49.9407 95.6269 49.9536C95.6269 49.9536 95.6861 49.9536 95.7216 49.9536C95.922 50.0155 96.1372 50.0155 96.3376 49.9536C96.3376 49.9536 96.3968 49.9536 96.4323 49.9536C96.4952 49.9407 96.5553 49.9173 96.61 49.8844L105.435 44.5472C105.605 44.4434 105.746 44.2989 105.843 44.1275C105.941 43.956 105.992 43.7633 105.991 43.5674V33.4923C106.003 33.3927 106.003 33.2922 105.991 33.1926ZM94.774 46.8412L88.2593 42.9218V35.5673L94.774 39.4751V46.8412ZM95.9585 37.4808L89.3253 33.4923L95.9585 29.5153L102.592 33.4923L95.9585 37.4808ZM103.658 42.9218L97.143 46.8412V39.4751L103.658 35.5673V42.9218Z" fill="currentColor"/>
</svg>
